PathFileType  4	(X/Y/Z) /root/TVB/SAM4Dcap/opencap/output/Data/subject2_Session0/MarkerData/mmpose_0.8/2-cameras/PreAugmentation
DataRate	CameraRate	NumFrames	NumMarkers	Units	OrigDataRate	OrigDataStartFrame	OrigNumFrames
60.0	60.0	15	20	m	60.0	77	152
Frame#	Time	Neck			RShoulder			RElbow			RWrist			LShoulder			LElbow			LWrist			midHip			RHip			RKnee			RAnkle			LHip			LKnee			LAnkle			LBigToe			LSmallToe			LHeel			RBigToe			RSmallToe			RHeel			
		X1	Y1	Z1	X2	Y2	Z2	X3	Y3	Z3	X4	Y4	Z4	X5	Y5	Z5	X6	Y6	Z6	X7	Y7	Z7	X8	Y8	Z8	X9	Y9	Z9	X10	Y10	Z10	X11	Y11	Z11	X12	Y12	Z12	X13	Y13	Z13	X14	Y14	Z14	X15	Y15	Z15	X16	Y16	Z16	X17	Y17	Z17	X18	Y18	Z18	X19	Y19	Z19	X20	Y20	Z20	

77	1.2666667	0.9842400	1.0818100	-0.6078000	0.9966300	1.0780500	-0.4364900	0.9469900	0.7773900	-0.3476200	0.9892600	0.4836400	-0.2666300	0.9808600	1.0850400	-0.7787900	0.9377900	0.7768400	-0.8402400	0.9993400	0.4929500	-0.9068100	1.0116900	0.5471600	-0.5980300	1.0197800	0.5490100	-0.4735900	0.9714200	0.0801900	-0.4486900	0.9031300	-0.4238600	-0.3892000	1.0085700	0.5472100	-0.7225300	0.9483800	0.0661200	-0.7682600	0.9012000	-0.4160900	-0.8159500	1.0646900	-0.4780200	-0.8671200	1.0572800	-0.4754300	-0.8660200	0.8772800	-0.4575000	-0.7999400	1.0834600	-0.4732600	-0.3692400	1.0767100	-0.4723700	-0.3693500	0.8658300	-0.4719500	-0.3947100
78	1.2833333	0.9839900	1.0813700	-0.6077300	0.9955000	1.0778000	-0.4359100	0.9474800	0.7781100	-0.3474700	0.9887900	0.4834700	-0.2665800	0.9818100	1.0844100	-0.7792400	0.9429400	0.7753200	-0.8413100	1.0010500	0.4925300	-0.9077700	1.0133000	0.5470900	-0.5970800	1.0208300	0.5478900	-0.4728800	0.9671000	0.0778700	-0.4463800	0.9032400	-0.4229700	-0.3904600	1.0109900	0.5475900	-0.7213600	0.9499900	0.0654400	-0.7682700	0.9011900	-0.4166600	-0.8167700	1.0620700	-0.4792700	-0.8699600	1.0552200	-0.4765300	-0.8686500	0.8767900	-0.4579600	-0.8004200	1.0856500	-0.4716500	-0.3684800	1.0791000	-0.4706000	-0.3686000	0.8660600	-0.4698600	-0.3964300
79	1.3000000	0.9851600	1.0818200	-0.6074900	0.9969700	1.0784700	-0.4354800	0.9474100	0.7769400	-0.3472600	0.9893000	0.4824100	-0.2661800	0.9827600	1.0845600	-0.7790900	0.9433800	0.7743400	-0.8429100	1.0009700	0.4932900	-0.9077000	1.0142300	0.5445800	-0.5984900	1.0213800	0.5462600	-0.4732400	0.9680400	0.0806200	-0.4471800	0.9033700	-0.4224200	-0.3885300	1.0123900	0.5443000	-0.7237900	0.9526900	0.0671600	-0.7699800	0.9020300	-0.4156000	-0.8158700	1.0629500	-0.4780600	-0.8665900	1.0559100	-0.4753700	-0.8654200	0.8787500	-0.4569400	-0.7999000	1.0845700	-0.4728900	-0.3688800	1.0780300	-0.4720000	-0.3689000	0.8662400	-0.4703500	-0.3949000
80	1.3166667	0.9848500	1.0815700	-0.6073000	0.9969800	1.0778500	-0.4350000	0.9465700	0.7772700	-0.3470600	0.9891000	0.4828400	-0.2671300	0.9820900	1.0847200	-0.7792800	0.9429000	0.7756400	-0.8411000	1.0002200	0.4966700	-0.9070700	1.0130300	0.5483000	-0.5966800	1.0208000	0.5495900	-0.4726100	0.9679900	0.0790100	-0.4473900	0.9040600	-0.4245500	-0.3884500	1.0104900	0.5482900	-0.7207400	0.9518200	0.0672000	-0.7680500	0.9018500	-0.4158500	-0.8177000	1.0733800	-0.4762300	-0.8606400	1.0665300	-0.4741100	-0.8598900	0.8773000	-0.4569900	-0.8017400	1.0849100	-0.4717500	-0.3670800	1.0784000	-0.4707500	-0.3671600	0.8661800	-0.4706600	-0.3944500
81	1.3333333	0.9848600	1.0811700	-0.6069400	0.9973000	1.0773100	-0.4343300	0.9497500	0.7740600	-0.3447900	0.9899400	0.4833800	-0.2677700	0.9817200	1.0845800	-0.7792500	0.9424800	0.7758400	-0.8409800	1.0005800	0.4935800	-0.9073900	1.0114200	0.5476500	-0.5982100	1.0187500	0.5489800	-0.4742000	0.9655400	0.0781900	-0.4463900	0.9023300	-0.4269000	-0.3890000	1.0095700	0.5474700	-0.7222400	0.9518100	0.0651300	-0.7684100	0.9027600	-0.4174500	-0.8166600	1.0625600	-0.4812500	-0.8672300	1.0559000	-0.4785000	-0.8662700	0.8803500	-0.4579500	-0.7998600	1.0864200	-0.4716600	-0.3671400	1.0801600	-0.4707100	-0.3670600	0.8645800	-0.4744300	-0.3968000
82	1.3500000	0.9859900	1.0806400	-0.6077000	0.9985600	1.0765100	-0.4342600	0.9490700	0.7738600	-0.3448800	0.9893000	0.4825000	-0.2670500	0.9828700	1.0842600	-0.7808000	0.9394200	0.7754900	-0.8403000	0.9962300	0.4945100	-0.9076900	1.0121000	0.5486600	-0.5998200	1.0195800	0.5509300	-0.4747500	0.9680500	0.0808000	-0.4475200	0.9021900	-0.4251900	-0.3879300	1.0095700	0.5483100	-0.7248700	0.9542300	0.0686400	-0.7701600	0.9021600	-0.4164300	-0.8202900	1.0722900	-0.4795200	-0.8614400	1.0655000	-0.4773400	-0.8609900	0.8785200	-0.4571400	-0.8030900	1.0844800	-0.4736000	-0.3699000	1.0779400	-0.4726400	-0.3697800	0.8656600	-0.4726700	-0.3948800
83	1.3666667	0.9847900	1.0816300	-0.6075600	0.9978000	1.0775100	-0.4352900	0.9468000	0.7793900	-0.3482200	0.9873700	0.4838700	-0.2671500	0.9809500	1.0852800	-0.7795500	0.9382600	0.7787200	-0.8397600	0.9938700	0.4992200	-0.9055900	1.0138400	0.5581400	-0.5964500	1.0214700	0.5599600	-0.4725300	0.9675300	0.0842600	-0.4485700	0.9039500	-0.4236700	-0.3881100	1.0111600	0.5578200	-0.7204100	0.9530100	0.0665600	-0.7699000	0.9029700	-0.4160700	-0.8180300	1.0721900	-0.4782400	-0.8614400	1.0661400	-0.4759100	-0.8604200	0.8783000	-0.4571700	-0.8014000	1.0807700	-0.4736400	-0.3698100	1.0738000	-0.4725500	-0.3699300	0.8681700	-0.4705400	-0.3944100
84	1.3833333	0.9844100	1.0816600	-0.6073700	0.9966800	1.0776500	-0.4353400	0.9472700	0.7745100	-0.3461400	0.9898400	0.4823200	-0.2665000	0.9811900	1.0853400	-0.7793100	0.9403000	0.7778800	-0.8406000	0.9983000	0.4941300	-0.9062300	1.0126900	0.5519300	-0.5978300	1.0203600	0.5540400	-0.4740400	0.9715700	0.0827200	-0.4475600	0.9041700	-0.4253900	-0.3882800	1.0100400	0.5515900	-0.7215900	0.9488700	0.0673700	-0.7687000	0.9018900	-0.4162700	-0.8169200	1.0748700	-0.4760800	-0.8585300	1.0665500	-0.4743000	-0.8587300	0.8791900	-0.4562800	-0.8003000	1.0842100	-0.4717600	-0.3684500	1.0772500	-0.4708700	-0.3685200	0.8670800	-0.4720500	-0.3951800
85	1.4000000	0.9846600	1.0809900	-0.6077000	0.9965000	1.0768900	-0.4356700	0.9460800	0.7756500	-0.3460700	0.9875300	0.4819300	-0.2671200	0.9819600	1.0846500	-0.7794800	0.9405900	0.7776600	-0.8407000	0.9998400	0.4966500	-0.9072500	1.0134100	0.5505800	-0.5959100	1.0212200	0.5526900	-0.4721000	0.9712600	0.0825600	-0.4467800	0.9060500	-0.4217700	-0.3882200	1.0104100	0.5501200	-0.7197200	0.9475000	0.0671200	-0.7676000	0.9004000	-0.4165700	-0.8165300	1.0745000	-0.4745600	-0.8583400	1.0683000	-0.4724200	-0.8571400	0.8759500	-0.4582600	-0.8013900	1.0854300	-0.4712000	-0.3696900	1.0784300	-0.4702000	-0.3696400	0.8701600	-0.4674600	-0.3944700
86	1.4166667	0.9848300	1.0815100	-0.6081200	0.9968300	1.0777600	-0.4361900	0.9459500	0.7764900	-0.3469600	0.9866200	0.4831100	-0.2686900	0.9818300	1.0847900	-0.7798300	0.9416500	0.7775400	-0.8408000	0.9997100	0.4959400	-0.9077900	1.0140800	0.5512600	-0.5949600	1.0225500	0.5534700	-0.4706000	0.9730400	0.0830700	-0.4473900	0.9052500	-0.4241000	-0.3874400	1.0105400	0.5506100	-0.7193100	0.9435300	0.0664000	-0.7676600	0.8990900	-0.4175300	-0.8174000	1.0756500	-0.4757800	-0.8574700	1.0697400	-0.4735400	-0.8562200	0.8740700	-0.4600800	-0.8024800	1.0875100	-0.4714800	-0.3692100	1.0805700	-0.4705600	-0.3691400	0.8678500	-0.4706700	-0.3934800
87	1.4333333	0.9845400	1.0813200	-0.6076900	0.9962800	1.0773200	-0.4362200	0.9450500	0.7768500	-0.3476100	0.9863300	0.4838400	-0.2684000	0.9819500	1.0848400	-0.7789000	0.9417700	0.7820900	-0.8411400	0.9994700	0.4991900	-0.9074200	1.0120800	0.5580300	-0.5969900	1.0197800	0.5599700	-0.4724900	0.9677200	0.0824700	-0.4466500	0.9033400	-0.4234700	-0.3874200	1.0092600	0.5576100	-0.7214600	0.9507900	0.0667500	-0.7679900	0.9032900	-0.4165700	-0.8153000	1.0767100	-0.4755900	-0.8599200	1.0707100	-0.4735100	-0.8585000	0.8798600	-0.4584200	-0.7990100	1.0865000	-0.4716700	-0.3688700	1.0797700	-0.4706100	-0.3688100	0.8664700	-0.4709300	-0.3926200
88	1.4500000	0.9841600	1.0819400	-0.6076300	0.9966500	1.0784900	-0.4359300	0.9462200	0.7766500	-0.3474000	0.9885300	0.4824200	-0.2683200	0.9806400	1.0849600	-0.7791300	0.9381800	0.7791000	-0.8390900	0.9978600	0.4963600	-0.9058300	1.0121300	0.5507700	-0.5964600	1.0193600	0.5525200	-0.4720600	0.9680500	0.0838300	-0.4489200	0.9035300	-0.4237400	-0.3891300	1.0103200	0.5500300	-0.7206800	0.9522000	0.0677400	-0.7679200	0.9015600	-0.4149600	-0.8171800	1.0810700	-0.4765400	-0.8560300	1.0761100	-0.4739900	-0.8543700	0.8773200	-0.4570800	-0.8016600	1.0854300	-0.4725300	-0.3677600	1.0785800	-0.4716600	-0.3677000	0.8667700	-0.4719300	-0.3965800
89	1.4666667	0.9847400	1.0813000	-0.6081100	0.9972500	1.0774300	-0.4359400	0.9466500	0.7758900	-0.3469300	0.9873400	0.4819700	-0.2691600	0.9814500	1.0846700	-0.7800500	0.9387000	0.7792700	-0.8390300	0.9965800	0.4968500	-0.9063400	1.0132600	0.5521400	-0.5958300	1.0212700	0.5539600	-0.4711800	0.9687000	0.0819200	-0.4471400	0.9054700	-0.4264800	-0.3870100	1.0103900	0.5515600	-0.7205700	0.9514400	0.0663500	-0.7674600	0.9028500	-0.4149600	-0.8179800	1.0763100	-0.4771600	-0.8598400	1.0703900	-0.4748900	-0.8589300	0.8786100	-0.4566900	-0.8025000	1.0860900	-0.4747800	-0.3692800	1.0793600	-0.4737400	-0.3692800	0.8687900	-0.4733000	-0.3926900
90	1.4833333	0.9847000	1.0823600	-0.6076800	0.9967200	1.0783600	-0.4357800	0.9471400	0.7774000	-0.3472200	0.9875900	0.4819800	-0.2684200	0.9818400	1.0858600	-0.7792400	0.9400900	0.7788300	-0.8415600	0.9954500	0.4946100	-0.9080800	1.0131700	0.5522200	-0.5979000	1.0211900	0.5542500	-0.4738000	0.9688700	0.0810600	-0.4475000	0.9042700	-0.4249100	-0.3889600	1.0102500	0.5515500	-0.7220200	0.9516000	0.0694000	-0.7679700	0.9020000	-0.4149400	-0.8161900	1.0776200	-0.4760200	-0.8570000	1.0719900	-0.4739000	-0.8555300	0.8769300	-0.4563700	-0.8000100	1.0867900	-0.4722500	-0.3661600	1.0803600	-0.4712700	-0.3661700	0.8670000	-0.4724800	-0.3962900
91	1.5000000	0.9849700	1.0819300	-0.6074800	0.9974500	1.0781000	-0.4355800	0.9472800	0.7756000	-0.3461600	0.9875600	0.4828900	-0.2681900	0.9815600	1.0852500	-0.7789500	0.9373400	0.7776000	-0.8404100	0.9959800	0.4943600	-0.9081600	1.0113500	0.5492700	-0.5968400	1.0201800	0.5514200	-0.4729100	0.9720800	0.0812400	-0.4482700	0.9051800	-0.4271900	-0.3897700	1.0074700	0.5486600	-0.7209500	0.9468800	0.0694900	-0.7654800	0.9015000	-0.4127900	-0.8170600	1.0730700	-0.4781700	-0.8608200	1.0651200	-0.4762700	-0.8609700	0.8790100	-0.4537200	-0.7997100	1.0857300	-0.4724300	-0.3680000	1.0788700	-0.4717200	-0.3680000	0.8668300	-0.4745800	-0.3961500
